# AST/ASF file generated using VICON BodyLanguage
# -----------------------------------------------
:version 1.10
:name VICON
:units
  mass 1.0
  length 0.45
  angle deg
:documentation
   .ast/.asf automatically generated from VICON data using
   VICON BodyBuilder and BodyLanguage model FoxedUp or BRILLIANT.MOD
:root
   order TX TY TZ RX RY RZ
   axis XYZ
   position 0 0 0  
   orientation 0 0 0 
:bonedata
  begin
     id 1 
     name lhipjoint
     direction 0.611804 -0.747784 0.257906 
     length 2.29243 
     axis 0 0 0  XYZ
  end
  begin
     id 2 
     name lfemur
     direction 0.34202 -0.939693 0  
     length 7.31159  
     axis 0 0 20  XYZ
    dof rx ry rz
    limits (-160.0 20.0)
           (-70.0 70.0)
           (-60.0 70.0)
  end
  begin
     id 3 
     name ltibia
     direction 0.34202 -0.939693 0   
     length 7.33391   
     axis 0 0 20   XYZ
    dof rx
    limits (-10.0 170.0)
  end
  begin
     id 4 
     name lfoot
     direction 0.122263 -0.335914 0.933924   
     length 1.76083   
     axis -90 7.62852e-016 20   XYZ
    dof rx rz
    limits (-45.0 90.0)
           (-70.0 20.0)
  end
  begin
     id 5 
     name ltoes
     direction 1.53533e-011 -4.2177e-011 1   
     length 0.879206   
     axis -90 7.62852e-016 20   XYZ
    dof rx
    limits (-90.0 20.0)
  end
  begin
     id 6 
     name rhipjoint
     direction -0.646469 -0.721248 0.248754   
     length 2.37677  
     axis 0 0 0  XYZ 
  end
  begin
     id 7 
     name rfemur
     direction -0.34202 -0.939693 0   
     length 7.18623   
     axis 0 0 -20   XYZ
    dof rx ry rz
    limits (-160.0 20.0)
           (-70.0 70.0)
           (-70.0 60.0)
  end
  begin
     id 8 
     name rtibia
     direction -0.34202 -0.939693 0   
     length 7.36567   
     axis 0 0 -20   XYZ
    dof rx
    limits (-10.0 170.0)
 end
 begin
     id 9 
     name rfoot
     direction -0.126681 -0.348054 0.928876   
     length 1.71902  
     axis -90 -7.62852e-016 -20   XYZ
    dof rx rz
    limits (-45.0 90.0)
           (-20.0 70.0)
  end
  begin
     id 10 
     name rtoes
     direction -1.53551e-011 -4.21898e-011 1   
     length 0.857792   
     axis -90 -7.62852e-016 -20   XYZ
    dof rx
    limits (-90.0 20.0)
  end
  begin
     id 11 
     name lowerback
     direction 0.0106509 0.999778 0.0181844   
     length 2.07668   
     axis 0 0 0   XYZ
    dof rx ry rz
    limits (-20.0 45.0)
           (-30.0 30.0)
           (-30.0 30.0)
  end
  begin
     id 12 
     name upperback
     direction -0.00456018 0.999989 -0.000590935   
     length 2.08011   
     axis 0 0 0   XYZ
    dof rx ry rz
    limits (-20.0 45.0)
           (-30.0 30.0)
           (-30.0 30.0)
  end
  begin
     id 13 
     name thorax
     direction -0.00910382 0.999916 -0.00923765   
     length 2.07397   
     axis 0 0 0   XYZ
    dof rx ry rz
    limits (-20.0 45.0)
           (-30.0 30.0)
           (-30.0 30.0)
  end
  begin
     id 14 
     name lowerneck
     direction 0.00171967 0.99778 0.0665733   
     length 1.67556   
     axis 0 0 0   XYZ
    dof rx ry rz
    limits (-20.0 45.0)
           (-30.0 30.0)
           (-30.0 30.0)
  end
  begin
     id 15 
     name upperneck
     direction -0.0143166 0.991302 -0.130828   
     length 1.68462   
     axis 0 0 0   XYZ
    dof rx ry rz
    limits (-20.0 45.0)
           (-30.0 30.0)
           (-30.0 30.0)
  end
  begin
     id 16
     name head
     direction -0.00606378 0.998665 -0.0512995  
     length 1.69269  
     axis 0 0 0   XYZ
    dof rx ry rz
    limits (-20.0 45.0)
           (-30.0 30.0)
           (-30.0 30.0)
  end
  begin
     id 17 
     name lclavicle
     direction 0.9638 0.179341 0.197297  
     length 4.12888  
     axis 0 0 0   XYZ
    dof ry rz
    limits (-20.0 10.0)
           (0.0 20.0)
  end
  begin
     id 18 
     name lhumerus
     direction 1 -4.48972e-011 -2.47351e-027   
     length 5.01834   
     axis -180 -30 -90   XYZ
    dof rx ry rz
    limits (-60.0 90.0)
           (-90.0 90.0)
           (-90.0 90.0)
  end
  begin
     id 19
     name lradius
     direction 1 -4.48965e-011 1.51591e-026   
     length 3.4869   
     axis -180 -30 -90   XYZ
    dof rx
    limits (-10.0 170.0)
  end
  begin
     id 20
     name lwrist
     direction 1 -4.48957e-011 2.70032e-026   
     length 1.74345   
     axis -1.81515e-014 90 90   XYZ
    dof ry
    limits (-180.0 0.0)
 end
  begin
     id 21 
     name lhand
     direction 1 -4.48951e-011 5.40064e-026   
     length 0.76799   
     axis -3.44607e-014 90 90   XYZ
    dof rx rz
    limits (-90.0 90.0)
           (-45.0 45.0)
  end
  begin
     id 22 
     name lfingers
     direction 1 -4.48971e-011 1.08013e-025   
     length 0.619174   
     axis -6.89214e-014 90 90   XYZ
    dof rx
    limits (0.0 90.0)
  end
  begin
     id 23
     name lthumb
     direction 0.707107 -6.34931e-011 0.707107   
     length 0.889013   
     axis -90 45 2.85299e-015   XYZ
    dof rx rz
    limits (-45.0 45.0)
           (-45.0 45.0)
  end
  begin
     id 24 
     name rclavicle
     direction -0.961409 0.252588 0.109054   
     length 4.04305  
     axis 0 0 0   XYZ 
    dof ry rz
    limits (-10.0 20.0)
           (-20.0 0.0)
  end
  begin
     id 25 
     name rhumerus
     direction -1 -4.4897e-011 1.33872e-017  
     length 4.70164   
     axis -180 30 90   XYZ
    dof rx ry rz
    limits (-90.0 60.0)
           (-90.0 90.0)
           (-90.0 90.0)
  end
  begin
     id 26 
     name rradius
     direction -1 -4.48954e-011 1.83844e-026   
     length 3.49911   
     axis -180 30 90   XYZ
    dof rx
    limits (-10.0 170.0)
  end
  begin
     id 27 
     name rwrist
     direction -1 -4.49008e-011 2.70032e-026   
     length 1.74955   
     axis -1.81515e-014 -90 -90   XYZ
    dof ry
    limits (-180.0 0.0)
  end
  begin
     id 28
     name rhand
     direction -1 -4.48916e-011 5.40064e-026   
     length 0.739335   
     axis -3.44607e-014 -90 -90   XYZ
    dof rx rz
    limits (-90.0 90.0)
           (-45.0 45.0)
  end
  begin
     id 29
     name rfingers
     direction -1 -4.48987e-011 1.08013e-025   
     length 0.596071   
     axis -6.89214e-014 -90 -90   XYZ
    dof rx
    limits (0.0 90.0)
  end
  begin
     id 30
     name rthumb
     direction -0.707107 -6.34935e-011 0.707107   
     length 0.855843   
     axis -90 -45 -2.85299e-015   XYZ
    dof rx rz
    limits (-45.0 45.0)
           (-45.0 45.0)
  end
:hierarchy
  begin
    root lhipjoint rhipjoint lowerback
    lhipjoint lfemur
    lfemur ltibia
    ltibia lfoot
    lfoot ltoes
    rhipjoint rfemur
    rfemur rtibia
    rtibia rfoot
    rfoot rtoes
    lowerback upperback
    upperback thorax
    thorax lowerneck lclavicle rclavicle
    lowerneck upperneck
    upperneck head
    lclavicle lhumerus
    lhumerus lradius
    lradius lwrist
    lwrist lhand lthumb
    lhand lfingers
    rclavicle rhumerus
    rhumerus rradius
    rradius rwrist
    rwrist rhand rthumb
    rhand rfingers
  end

#!OML:ASF I:\salsa\salsa 7_09\Patient 1\Session 1\dancermale.ASF
:FULLY-SPECIFIED
:DEGREES
1004
root 2.0389 17.2582 -10.134 9.36922 20.9028 721.307
lowerback -2.45834 4.80714 1.45041
upperback -3.05005 6.39454 -5.74886
thorax -0.956177 3.16126 -6.63499
lowerneck -11.6587 -8.10379 -3.67497
upperneck 15.1348 -11.0496 3.99754
head 6.97208 -5.18925 0.80851
rclavicle 2.21148e-014 -2.22639e-014
rhumerus 64.5613 -0.758967 -35.1904
rradius 37.83
rwrist -0.145408
rhand -18.9889 -0.354198
rfingers 7.12502
rthumb 7.31584 -30.2077
lclavicle 2.21148e-014 -2.22639e-014
lhumerus -61.5001 -67.3426 144.683
lradius 92.1654
lwrist 37.9233
lhand -2.94228 51.9968
lfingers 7.12502
lthumb 22.7694 -279.327
rfemur -32.8638 0.390014 7.59183
rtibia 39.0199
rfoot -13.5899 -19.9715
rtoes 20.741
lfemur -9.1113 -2.26865 -21.0226
ltibia 21.3752
lfoot -22.7398 12.2382
ltoes -8.19887
1005
root 1.98758 17.2684 -10.0277 9.8936 21.6809 721.587
lowerback -2.54447 5.04998 1.11408
upperback -3.17894 6.72232 -5.82493
thorax -1.02938 3.32875 -6.51326
lowerneck -11.6773 -8.16085 -3.65123
upperneck 15.0168 -11.1069 3.90031
head 6.93211 -5.2251 0.770024
rclavicle 4.90998e-014 -3.33958e-014
rhumerus 64.258 -1.37546 -35.0172
rradius 34.2876
rwrist 8.36571
rhand -17.5035 -0.603132
rfingers 7.12502
rthumb 8.7495 -30.4018
lclavicle 4.90998e-014 -3.33958e-014
lhumerus -61.7475 -67.3151 145.154
lradius 92.5073
lwrist 38.2688
lhand -2.90434 52.2059
lfingers 7.12502
lthumb 22.8058 -279.122
rfemur -32.6608 1.99717 6.13576
rtibia 35.4
rfoot -13.4638 -20.0484
rtoes 20.8155
lfemur -8.94646 -2.08592 -20.8855
ltibia 20.661
lfoot -22.6223 11.5359
ltoes -9.07406
1006
root 1.92794 17.2809 -9.93147 10.5143 22.8625 721.739
lowerback -2.57323 5.18514 0.984596
upperback -3.34301 6.90229 -5.89812
thorax -1.16778 3.41754 -6.51884
lowerneck -11.7953 -8.20665 -3.46389
upperneck 14.9497 -11.1466 3.62006
head 6.90436 -5.25651 0.646122
rclavicle 5.66039e-014 -2.38542e-014
rhumerus 63.6229 -2.32122 -34.8659
rradius 31.2883
rwrist 15.8385
rhand -16.2263 -0.796605
rfingers 7.12502
rthumb 9.98179 -30.5399
lclavicle 5.66039e-014 -2.38542e-014
lhumerus -61.8684 -67.387 145.363
lradius 92.8516
lwrist 38.285
lhand -2.45749 52.5183
lfingers 7.12502
lthumb 23.2345 -278.863
rfemur -32.7714 3.28282 4.82037
rtibia 32.2067
rfoot -13.237 -20.3657
rtoes 20.3595
lfemur -9.22787 -2.31023 -20.4673
ltibia 20.2351
lfoot -22.4061 10.8871
ltoes -9.87077
1007
root 1.87475 17.2966 -9.81552 10.9664 24.1729 721.762
lowerback -2.69264 5.29592 0.970038
upperback -3.44705 7.05203 -5.90781
thorax -1.19167 3.49255 -6.50954
lowerneck -12.1607 -8.31981 -3.02643
upperneck 15.2438 -11.2561 2.88858
head 6.99561 -5.3361 0.317258
rclavicle 4.32357e-014 2.38542e-014
rhumerus 62.5576 -3.37928 -34.4363
rradius 29.1173
rwrist 21.5294
rhand -15.0673 -1.12558
rfingers 7.12502
rthumb 11.0998 -30.812
lclavicle 4.32357e-014 2.38542e-014
lhumerus -61.7483 -67.3108 145.218
lradius 92.9282
lwrist 38.0956
lhand -1.64152 52.5121
lfingers 7.12502
lthumb 24.0172 -278.971
rfemur -32.5909 4.46228 3.66167
rtibia 28.9556
rfoot -13.0366 -20.6477
rtoes 19.0164
lfemur -9.22148 -2.79649 -19.8934
ltibia 19.5855
lfoot -22.3178 10.3078
ltoes -10.2161
1008
root 1.83493 17.3104 -9.65772 11.1997 25.5323 721.796
lowerback -3.08165 5.35428 0.822777
upperback -3.41858 7.14248 -5.85604
thorax -0.958523 3.54636 -6.32617
lowerneck -12.7616 -8.55845 -2.77571
upperneck 15.8892 -11.5519 2.38167
head 7.27066 -5.48661 0.0462854
rclavicle -5.10877e-014 3.81667e-014
rhumerus 61.0135 -4.38632 -33.5889
rradius 28.031
rwrist 25.898
rhand -13.2626 -1.63597
rfingers 7.12502
rthumb 12.8401 -31.221
lclavicle -5.10877e-014 3.81667e-014
lhumerus -61.3777 -67.1223 144.584
lradius 92.9448
lwrist 37.7061
lhand -1.0679 52.323
lfingers 7.12502
lthumb 24.5671 -279.233
rfemur -31.6812 5.68795 2.60061
rtibia 25.3146
rfoot -12.9094 -20.8166
rtoes 17.9758
lfemur -8.51257 -3.40661 -19.3803
ltibia 18.4753
lfoot -22.4083 9.53999
ltoes -9.86489
1009
root 1.78017 17.3232 -9.50273 11.4235 26.9185 721.807
lowerback -3.27678 5.33616 0.552764
upperback -3.43861 7.12691 -5.7577
thorax -0.916778 3.5438 -6.05505
lowerneck -12.6915 -8.5904 -3.00151
upperneck 15.7518 -11.5935 2.63998
head 7.24504 -5.49933 0.163438
rclavicle -8.21975e-014 7.95139e-015
rhumerus 58.9524 -5.08121 -31.7614
rradius 28.0363
rwrist 28.8074
rhand -10.8572 -1.86249
rfingers 7.12502
rthumb 15.1581 -31.2873
lclavicle -8.21975e-014 7.95139e-015
lhumerus -60.7767 -66.8682 143.523
lradius 93.076
lwrist 37.2253
lhand -0.87301 52.2826
lfingers 7.12502
lthumb 24.7539 -279.299
rfemur -30.8423 7.38153 1.54031
rtibia 21.8988
rfoot -12.9401 -21.5646
rtoes 17.2138
lfemur -7.96053 -3.79016 -18.738
ltibia 17.5012
lfoot -21.8769 9.02806
ltoes -13.3679
1010
root 1.72873 17.3322 -9.33638 11.5431 28.5202 721.804
lowerback -3.41605 5.23762 0.331433
upperback -3.46221 7.00216 -5.63053
thorax -0.918706 3.48478 -5.79271
lowerneck -12.107 -8.45797 -3.30934
upperneck 15.2322 -11.44 3.17415
head 7.02289 -5.4145 0.432612
rclavicle 1.24737e-014 -3.18055e-015
rhumerus 56.2256 -5.10984 -28.5202
rradius 28.9916
rwrist 30.2755
rhand -8.28517 -1.8773
rfingers 7.12502
rthumb 17.6344 -31.0976
lclavicle 1.24737e-014 -3.18055e-015
lhumerus -60.272 -66.3755 142.408
lradius 93.2237
lwrist 36.668
lhand -0.923852 52.3025
lfingers 7.12502
lthumb 24.7052 -279.273
rfemur -29.7156 9.1921 0.540476
rtibia 18.5975
rfoot -13.1502 -22.7223
rtoes 16.1686
lfemur -7.3492 -4.14213 -18.0927
ltibia 16.513
lfoot -20.9347 8.61852
ltoes -16.0938
1011
root 1.68384 17.3368 -9.16164 11.6637 30.3945 721.823
lowerback -3.57839 5.04424 0.189324
upperback -3.50221 6.75021 -5.51093
thorax -0.925688 3.3607 -5.58735
lowerneck -11.7207 -8.30486 -3.33646
upperneck 15.0693 -11.2363 3.232
head 6.90208 -5.32204 0.497148
rclavicle 8.28435e-014 -6.36111e-015
rhumerus 52.948 -4.38684 -24.0524
rradius 30.6968
rwrist 30.7166
rhand -5.65167 -1.69352
rfingers 7.12502
rthumb 20.1672 -30.6667
lclavicle 8.28435e-014 -6.36111e-015
lhumerus -59.7508 -65.5353 141.152
lradius 93.3479
lwrist 35.9422
lhand -1.48498 52.5872
lfingers 7.12502
lthumb 24.1673 -278.915
rfemur -28.4532 10.8092 -0.327927
rtibia 15.6251
rfoot -13.5578 -23.8388
rtoes 15.9726
lfemur -6.81244 -5.05023 -17.4316
ltibia 15.6848
lfoot -20.5137 8.18286
ltoes -17.1485
1012
root 1.64308 17.334 -8.98319 11.9309 32.4976 721.907
lowerback -3.89083 4.7593 0.108602
upperback -3.5538 6.37968 -5.42242
thorax -0.859852 3.17744 -5.44114
lowerneck -11.681 -8.16975 -3.20325
upperneck 15.3269 -11.0315 2.92592
head 6.94554 -5.23781 0.398605
rclavicle 7.6383e-014 1.03368e-014
rhumerus 49.3257 -3.01868 -18.8982
rradius 32.9599
rwrist 30.3002
rhand -3.5784 -0.910777
rfingers 7.12502
rthumb 22.1588 -29.6608
lclavicle 7.6383e-014 1.03368e-014
lhumerus -59.0605 -64.3974 139.563
lradius 93.4973
lwrist 35.017
lhand -2.38585 53.2403
lfingers 7.12502
lthumb 23.3033 -278.15
rfemur -27.3551 11.8196 -0.957379
rtibia 13.2788
rfoot -13.8251 -24.2387
rtoes 15.9845
lfemur -6.60648 -6.32476 -16.7587
ltibia 15.2426
lfoot -20.6408 7.56099
ltoes -15.9356
1013
root 1.59771 17.326 -8.79394 12.1569 34.5075 721.922
lowerback -4.24418 4.50312 0.0395636
upperback -3.60499 6.0487 -5.32052
thorax -0.76527 3.0143 -5.28415
lowerneck -11.679 -8.02842 -3.00324
upperneck 15.6278 -10.8056 2.48473
head 6.99813 -5.15031 0.246766
rclavicle -6.88789e-014 1.03368e-014
rhumerus 45.473 -1.1871 -13.7488
rradius 35.7152
rwrist 29.2588
rhand -2.56295 0.398663
rfingers 7.12502
rthumb 23.1334 -28.2324
lclavicle -6.88789e-014 1.03368e-014
lhumerus -58.3185 -63.0745 137.696
lradius 93.785
lwrist 33.9799
lhand -2.88581 53.5362
lfingers 7.12502
lthumb 22.8235 -277.794
rfemur -26.4945 12.3709 -1.08907
rtibia 11.7162
rfoot -13.5699 -23.6484
rtoes 13.4648
lfemur -6.54432 -7.18102 -16.0065
ltibia 15.0383
lfoot -20.5971 7.17363
ltoes -15.8119
1014
root 1.54491 17.3185 -8.58791 12.0892 36.2011 721.752
lowerback -4.44357 4.32473 0.0446536
upperback -3.64588 5.81518 -5.21889
thorax -0.72786 2.89803 -5.17841
lowerneck -11.7114 -7.82806 -2.81197
upperneck 16.0377 -10.5124 2.12259
head 7.09711 -5.02206 0.123398
rclavicle -1.36167e-014 -2.78299e-014
rhumerus 41.4793 1.11153 -8.93583
rradius 39.1555
rwrist 27.416
rhand -2.19953 1.47541
rfingers 7.12502
rthumb 23.482 -27.1115
lclavicle -1.36167e-014 -2.78299e-014
lhumerus -57.7615 -61.5755 135.675
lradius 94.2531
lwrist 33.4173
lhand -3.43018 53.1162
lfingers 7.12502
lthumb 22.3011 -278.151
rfemur -25.6953 13.2036 -0.751909
rtibia 10.6947
rfoot -13.2128 -22.7216
rtoes 7.63134
lfemur -6.33634 -7.54892 -15.1388
ltibia 14.9814
lfoot -20.3596 7.07326
ltoes -15.7421
1015
root 1.48891 17.3133 -8.37058 11.8083 37.74 721.496
lowerback -4.45977 4.16628 0.113085
upperback -3.71267 5.60061 -5.14099
thorax -0.808473 2.78841 -5.14896
lowerneck -11.5733 -7.56322 -2.70523
upperneck 16.4153 -10.1433 1.91542
head 7.16934 -4.85153 0.0770212
rclavicle -9.54166e-015 -1.59028e-014
rhumerus 37.3745 3.95609 -4.54603
rradius 43.5273
rwrist 24.9195
rhand -1.83975 1.6846
rfingers 7.12502
rthumb 23.8271 -26.8577
lclavicle -9.54166e-015 -1.59028e-014
lhumerus -57.5648 -59.9015 133.662
lradius 94.8923
lwrist 33.4463
lhand -4.17848 52.4121
lfingers 7.12502
lthumb 21.5826 -278.771
rfemur -24.8729 13.3422 0.274828
rtibia 10.7481
rfoot -11.7546 -20.7265
rtoes 4.7326
lfemur -6.06455 -7.88573 -14.257
ltibia 15.2236
lfoot -20.0877 7.21454
ltoes -14.9078
